<mxfile host="app.diagrams.net" agent="Mozilla/5.0 (Macintosh; Intel Mac OS X 10_15_7) AppleWebKit/537.36 (KHTML, like Gecko) Chrome/138.0.0.0 Safari/537.36" version="28.2.5">
  <diagram name="Страница — 1" id="SLKxQ3z9kgKgd_0uzx8l">
    <mxGraphModel dx="1144" dy="614" grid="1" gridSize="10" guides="1" tooltips="1" connect="1" arrows="1" fold="1" page="1" pageScale="1" pageWidth="827" pageHeight="1169" math="0" shadow="0">
      <root>
        <mxCell id="0" />
        <mxCell id="1" parent="0" />
        <mxCell id="1hzqkpMkMBvuS3bL-LA8-6" value="Пул" style="swimlane;html=1;childLayout=stackLayout;resizeParent=1;resizeParentMax=0;horizontal=0;startSize=20;horizontalStack=0;whiteSpace=wrap;" vertex="1" parent="1">
          <mxGeometry x="20" y="10" width="500" height="360" as="geometry" />
        </mxCell>
        <mxCell id="1hzqkpMkMBvuS3bL-LA8-8" value="Дорожка 2" style="swimlane;html=1;startSize=20;horizontal=0;" vertex="1" parent="1hzqkpMkMBvuS3bL-LA8-6">
          <mxGeometry x="20" width="480" height="240" as="geometry" />
        </mxCell>
        <mxCell id="1hzqkpMkMBvuS3bL-LA8-10" value="Дорожка 4" style="swimlane;html=1;startSize=20;horizontal=0;" vertex="1" parent="1hzqkpMkMBvuS3bL-LA8-8">
          <mxGeometry x="20" width="460" height="120" as="geometry" />
        </mxCell>
        <mxCell id="1hzqkpMkMBvuS3bL-LA8-12" value="" style="points=[[0.145,0.145,0],[0.5,0,0],[0.855,0.145,0],[1,0.5,0],[0.855,0.855,0],[0.5,1,0],[0.145,0.855,0],[0,0.5,0]];shape=mxgraph.bpmn.event;html=1;verticalLabelPosition=bottom;labelBackgroundColor=#ffffff;verticalAlign=top;align=center;perimeter=ellipsePerimeter;outlineConnect=0;aspect=fixed;outline=standard;symbol=general;" vertex="1" parent="1hzqkpMkMBvuS3bL-LA8-10">
          <mxGeometry x="40" y="35" width="50" height="50" as="geometry" />
        </mxCell>
        <mxCell id="1hzqkpMkMBvuS3bL-LA8-13" value="" style="points=[[0.145,0.145,0],[0.5,0,0],[0.855,0.145,0],[1,0.5,0],[0.855,0.855,0],[0.5,1,0],[0.145,0.855,0],[0,0.5,0]];shape=mxgraph.bpmn.event;html=1;verticalLabelPosition=bottom;labelBackgroundColor=#ffffff;verticalAlign=top;align=center;perimeter=ellipsePerimeter;outlineConnect=0;aspect=fixed;outline=end;symbol=terminate2;" vertex="1" parent="1hzqkpMkMBvuS3bL-LA8-10">
          <mxGeometry x="390" y="35" width="50" height="50" as="geometry" />
        </mxCell>
        <mxCell id="1hzqkpMkMBvuS3bL-LA8-14" value="Действие 1" style="points=[[0.25,0,0],[0.5,0,0],[0.75,0,0],[1,0.25,0],[1,0.5,0],[1,0.75,0],[0.75,1,0],[0.5,1,0],[0.25,1,0],[0,0.75,0],[0,0.5,0],[0,0.25,0]];shape=mxgraph.bpmn.task2;whiteSpace=wrap;rectStyle=rounded;size=10;html=1;container=1;expand=0;collapsible=0;taskMarker=abstract;" vertex="1" parent="1hzqkpMkMBvuS3bL-LA8-10">
          <mxGeometry x="130" y="30" width="80" height="60" as="geometry" />
        </mxCell>
        <mxCell id="1hzqkpMkMBvuS3bL-LA8-15" value="Действие 2" style="points=[[0.25,0,0],[0.5,0,0],[0.75,0,0],[1,0.25,0],[1,0.5,0],[1,0.75,0],[0.75,1,0],[0.5,1,0],[0.25,1,0],[0,0.75,0],[0,0.5,0],[0,0.25,0]];shape=mxgraph.bpmn.task2;whiteSpace=wrap;rectStyle=rounded;size=10;html=1;container=1;expand=0;collapsible=0;taskMarker=abstract;" vertex="1" parent="1hzqkpMkMBvuS3bL-LA8-10">
          <mxGeometry x="240" y="30" width="90" height="60" as="geometry" />
        </mxCell>
        <mxCell id="1hzqkpMkMBvuS3bL-LA8-16" style="edgeStyle=orthogonalEdgeStyle;rounded=0;orthogonalLoop=1;jettySize=auto;html=1;exitX=1;exitY=0.5;exitDx=0;exitDy=0;exitPerimeter=0;entryX=0;entryY=0.5;entryDx=0;entryDy=0;entryPerimeter=0;" edge="1" parent="1hzqkpMkMBvuS3bL-LA8-10" source="1hzqkpMkMBvuS3bL-LA8-12" target="1hzqkpMkMBvuS3bL-LA8-14">
          <mxGeometry relative="1" as="geometry" />
        </mxCell>
        <mxCell id="1hzqkpMkMBvuS3bL-LA8-17" style="edgeStyle=orthogonalEdgeStyle;rounded=0;orthogonalLoop=1;jettySize=auto;html=1;exitX=1;exitY=0.5;exitDx=0;exitDy=0;exitPerimeter=0;entryX=0;entryY=0.5;entryDx=0;entryDy=0;entryPerimeter=0;" edge="1" parent="1hzqkpMkMBvuS3bL-LA8-10" source="1hzqkpMkMBvuS3bL-LA8-14" target="1hzqkpMkMBvuS3bL-LA8-15">
          <mxGeometry relative="1" as="geometry" />
        </mxCell>
        <mxCell id="1hzqkpMkMBvuS3bL-LA8-18" style="edgeStyle=orthogonalEdgeStyle;rounded=0;orthogonalLoop=1;jettySize=auto;html=1;exitX=1;exitY=0.5;exitDx=0;exitDy=0;exitPerimeter=0;entryX=0;entryY=0.5;entryDx=0;entryDy=0;entryPerimeter=0;" edge="1" parent="1hzqkpMkMBvuS3bL-LA8-10" source="1hzqkpMkMBvuS3bL-LA8-15" target="1hzqkpMkMBvuS3bL-LA8-13">
          <mxGeometry relative="1" as="geometry" />
        </mxCell>
        <mxCell id="1hzqkpMkMBvuS3bL-LA8-11" value="Дорожка 3" style="swimlane;html=1;startSize=20;horizontal=0;" vertex="1" parent="1hzqkpMkMBvuS3bL-LA8-8">
          <mxGeometry x="20" y="120" width="460" height="120" as="geometry" />
        </mxCell>
        <mxCell id="1hzqkpMkMBvuS3bL-LA8-9" value="Дорожка 1" style="swimlane;html=1;startSize=20;horizontal=0;" vertex="1" parent="1hzqkpMkMBvuS3bL-LA8-6">
          <mxGeometry x="20" y="240" width="480" height="120" as="geometry" />
        </mxCell>
        <mxCell id="1hzqkpMkMBvuS3bL-LA8-27" value="&amp;lt;&amp;lt;keyword&amp;gt;&amp;gt;&lt;br&gt;&lt;b&gt;Пул (Сервис)&lt;/b&gt;&lt;br&gt;{abstract}" style="swimlane;fontStyle=0;align=center;verticalAlign=top;childLayout=stackLayout;horizontal=1;startSize=55;horizontalStack=0;resizeParent=1;resizeParentMax=0;resizeLast=0;collapsible=0;marginBottom=0;html=1;whiteSpace=wrap;" vertex="1" parent="1">
          <mxGeometry x="550" y="10" width="140" height="123" as="geometry" />
        </mxCell>
        <mxCell id="1hzqkpMkMBvuS3bL-LA8-29" value="Исполнитель 1" style="text;html=1;strokeColor=none;fillColor=none;align=left;verticalAlign=middle;spacingLeft=4;spacingRight=4;overflow=hidden;rotatable=0;points=[[0,0.5],[1,0.5]];portConstraint=eastwest;whiteSpace=wrap;" vertex="1" parent="1hzqkpMkMBvuS3bL-LA8-27">
          <mxGeometry y="55" width="140" height="20" as="geometry" />
        </mxCell>
        <mxCell id="1hzqkpMkMBvuS3bL-LA8-31" value="Исполнитель 2" style="text;html=1;strokeColor=none;fillColor=none;align=left;verticalAlign=middle;spacingLeft=4;spacingRight=4;overflow=hidden;rotatable=0;points=[[0,0.5],[1,0.5]];portConstraint=eastwest;whiteSpace=wrap;" vertex="1" parent="1hzqkpMkMBvuS3bL-LA8-27">
          <mxGeometry y="75" width="140" height="20" as="geometry" />
        </mxCell>
        <mxCell id="1hzqkpMkMBvuS3bL-LA8-32" value="" style="line;strokeWidth=1;fillColor=none;align=left;verticalAlign=middle;spacingTop=-1;spacingLeft=3;spacingRight=3;rotatable=0;labelPosition=right;points=[];portConstraint=eastwest;" vertex="1" parent="1hzqkpMkMBvuS3bL-LA8-27">
          <mxGeometry y="95" width="140" height="8" as="geometry" />
        </mxCell>
        <mxCell id="1hzqkpMkMBvuS3bL-LA8-33" value="Точка входа сервиса" style="text;html=1;strokeColor=none;fillColor=none;align=left;verticalAlign=middle;spacingLeft=4;spacingRight=4;overflow=hidden;rotatable=0;points=[[0,0.5],[1,0.5]];portConstraint=eastwest;whiteSpace=wrap;" vertex="1" parent="1hzqkpMkMBvuS3bL-LA8-27">
          <mxGeometry y="103" width="140" height="20" as="geometry" />
        </mxCell>
        <mxCell id="1hzqkpMkMBvuS3bL-LA8-35" value="&amp;lt;&amp;lt;keyword&amp;gt;&amp;gt;&lt;br&gt;&lt;b&gt;Исполнитель 2&lt;/b&gt;&lt;div&gt;{abstract}&lt;/div&gt;" style="swimlane;fontStyle=0;align=center;verticalAlign=top;childLayout=stackLayout;horizontal=1;startSize=55;horizontalStack=0;resizeParent=1;resizeParentMax=0;resizeLast=0;collapsible=0;marginBottom=0;html=1;whiteSpace=wrap;" vertex="1" parent="1">
          <mxGeometry x="550" y="160" width="140" height="140" as="geometry" />
        </mxCell>
        <mxCell id="1hzqkpMkMBvuS3bL-LA8-36" value="Исполнитель 3" style="text;html=1;strokeColor=none;fillColor=none;align=left;verticalAlign=middle;spacingLeft=4;spacingRight=4;overflow=hidden;rotatable=0;points=[[0,0.5],[1,0.5]];portConstraint=eastwest;whiteSpace=wrap;" vertex="1" parent="1hzqkpMkMBvuS3bL-LA8-35">
          <mxGeometry y="55" width="140" height="20" as="geometry" />
        </mxCell>
        <mxCell id="1hzqkpMkMBvuS3bL-LA8-37" value="Исполнитель 4" style="text;html=1;strokeColor=none;fillColor=none;align=left;verticalAlign=middle;spacingLeft=4;spacingRight=4;overflow=hidden;rotatable=0;points=[[0,0.5],[1,0.5]];portConstraint=eastwest;whiteSpace=wrap;" vertex="1" parent="1hzqkpMkMBvuS3bL-LA8-35">
          <mxGeometry y="75" width="140" height="20" as="geometry" />
        </mxCell>
        <mxCell id="1hzqkpMkMBvuS3bL-LA8-38" value="" style="line;strokeWidth=1;fillColor=none;align=left;verticalAlign=middle;spacingTop=-1;spacingLeft=3;spacingRight=3;rotatable=0;labelPosition=right;points=[];portConstraint=eastwest;" vertex="1" parent="1hzqkpMkMBvuS3bL-LA8-35">
          <mxGeometry y="95" width="140" height="8" as="geometry" />
        </mxCell>
        <mxCell id="1hzqkpMkMBvuS3bL-LA8-39" value="Точка входа исполнителя 2" style="text;html=1;strokeColor=none;fillColor=none;align=left;verticalAlign=middle;spacingLeft=4;spacingRight=4;overflow=hidden;rotatable=0;points=[[0,0.5],[1,0.5]];portConstraint=eastwest;whiteSpace=wrap;" vertex="1" parent="1hzqkpMkMBvuS3bL-LA8-35">
          <mxGeometry y="103" width="140" height="37" as="geometry" />
        </mxCell>
        <mxCell id="1hzqkpMkMBvuS3bL-LA8-40" value="&amp;lt;&amp;lt;keyword&amp;gt;&amp;gt;&lt;br&gt;&lt;b&gt;Исполнитель 4&lt;/b&gt;&lt;div&gt;{abstract}&lt;/div&gt;" style="swimlane;fontStyle=0;align=center;verticalAlign=top;childLayout=stackLayout;horizontal=1;startSize=55;horizontalStack=0;resizeParent=1;resizeParentMax=0;resizeLast=0;collapsible=0;marginBottom=0;html=1;whiteSpace=wrap;" vertex="1" parent="1">
          <mxGeometry x="550" y="330" width="140" height="120" as="geometry" />
        </mxCell>
        <mxCell id="1hzqkpMkMBvuS3bL-LA8-42" value="..." style="text;html=1;strokeColor=none;fillColor=none;align=left;verticalAlign=middle;spacingLeft=4;spacingRight=4;overflow=hidden;rotatable=0;points=[[0,0.5],[1,0.5]];portConstraint=eastwest;whiteSpace=wrap;" vertex="1" parent="1hzqkpMkMBvuS3bL-LA8-40">
          <mxGeometry y="55" width="140" height="20" as="geometry" />
        </mxCell>
        <mxCell id="1hzqkpMkMBvuS3bL-LA8-43" value="" style="line;strokeWidth=1;fillColor=none;align=left;verticalAlign=middle;spacingTop=-1;spacingLeft=3;spacingRight=3;rotatable=0;labelPosition=right;points=[];portConstraint=eastwest;" vertex="1" parent="1hzqkpMkMBvuS3bL-LA8-40">
          <mxGeometry y="75" width="140" height="8" as="geometry" />
        </mxCell>
        <mxCell id="1hzqkpMkMBvuS3bL-LA8-44" value="Точка входа исполнителя 4" style="text;html=1;strokeColor=none;fillColor=none;align=left;verticalAlign=middle;spacingLeft=4;spacingRight=4;overflow=hidden;rotatable=0;points=[[0,0.5],[1,0.5]];portConstraint=eastwest;whiteSpace=wrap;" vertex="1" parent="1hzqkpMkMBvuS3bL-LA8-40">
          <mxGeometry y="83" width="140" height="37" as="geometry" />
        </mxCell>
        <mxCell id="1hzqkpMkMBvuS3bL-LA8-45" value="" style="endArrow=open;startArrow=none;endFill=0;startFill=0;endSize=8;html=1;verticalAlign=bottom;labelBackgroundColor=none;strokeWidth=1;rounded=0;entryX=0.5;entryY=0;entryDx=0;entryDy=0;" edge="1" parent="1" source="1hzqkpMkMBvuS3bL-LA8-27" target="1hzqkpMkMBvuS3bL-LA8-35">
          <mxGeometry width="160" relative="1" as="geometry">
            <mxPoint x="730" y="110" as="sourcePoint" />
            <mxPoint x="890" y="110" as="targetPoint" />
          </mxGeometry>
        </mxCell>
        <mxCell id="1hzqkpMkMBvuS3bL-LA8-46" value="" style="endArrow=open;startArrow=none;endFill=0;startFill=0;endSize=8;html=1;verticalAlign=bottom;labelBackgroundColor=none;strokeWidth=1;rounded=0;entryX=0.5;entryY=0;entryDx=0;entryDy=0;" edge="1" parent="1" source="1hzqkpMkMBvuS3bL-LA8-35" target="1hzqkpMkMBvuS3bL-LA8-40">
          <mxGeometry width="160" relative="1" as="geometry">
            <mxPoint x="620" y="140" as="sourcePoint" />
            <mxPoint x="710" y="330" as="targetPoint" />
          </mxGeometry>
        </mxCell>
        <mxCell id="1hzqkpMkMBvuS3bL-LA8-47" value="Содержит" style="text;html=1;align=center;verticalAlign=middle;whiteSpace=wrap;rounded=0;" vertex="1" parent="1">
          <mxGeometry x="630" y="133" width="60" height="30" as="geometry" />
        </mxCell>
        <mxCell id="1hzqkpMkMBvuS3bL-LA8-48" value="Содержит" style="text;html=1;align=center;verticalAlign=middle;whiteSpace=wrap;rounded=0;" vertex="1" parent="1">
          <mxGeometry x="630" y="300" width="60" height="30" as="geometry" />
        </mxCell>
        <mxCell id="1hzqkpMkMBvuS3bL-LA8-55" style="edgeStyle=orthogonalEdgeStyle;rounded=0;orthogonalLoop=1;jettySize=auto;html=1;exitX=0.5;exitY=1;exitDx=0;exitDy=0;entryX=0.5;entryY=0;entryDx=0;entryDy=0;" edge="1" parent="1" source="1hzqkpMkMBvuS3bL-LA8-49" target="1hzqkpMkMBvuS3bL-LA8-50">
          <mxGeometry relative="1" as="geometry" />
        </mxCell>
        <mxCell id="1hzqkpMkMBvuS3bL-LA8-49" value="Вход" style="ellipse;whiteSpace=wrap;html=1;aspect=fixed;" vertex="1" parent="1">
          <mxGeometry x="765" y="30" width="50" height="50" as="geometry" />
        </mxCell>
        <mxCell id="1hzqkpMkMBvuS3bL-LA8-56" style="edgeStyle=orthogonalEdgeStyle;rounded=0;orthogonalLoop=1;jettySize=auto;html=1;exitX=0.5;exitY=1;exitDx=0;exitDy=0;entryX=0.5;entryY=0;entryDx=0;entryDy=0;" edge="1" parent="1" source="1hzqkpMkMBvuS3bL-LA8-50" target="1hzqkpMkMBvuS3bL-LA8-51">
          <mxGeometry relative="1" as="geometry" />
        </mxCell>
        <mxCell id="1hzqkpMkMBvuS3bL-LA8-50" value="Вызов точки входа сервиса" style="rounded=1;whiteSpace=wrap;html=1;" vertex="1" parent="1">
          <mxGeometry x="730" y="98" width="120" height="60" as="geometry" />
        </mxCell>
        <mxCell id="1hzqkpMkMBvuS3bL-LA8-57" style="edgeStyle=orthogonalEdgeStyle;rounded=0;orthogonalLoop=1;jettySize=auto;html=1;exitX=0.5;exitY=1;exitDx=0;exitDy=0;entryX=0.5;entryY=0;entryDx=0;entryDy=0;" edge="1" parent="1" source="1hzqkpMkMBvuS3bL-LA8-51" target="1hzqkpMkMBvuS3bL-LA8-52">
          <mxGeometry relative="1" as="geometry" />
        </mxCell>
        <mxCell id="1hzqkpMkMBvuS3bL-LA8-51" value="Вызов точки входа исполнителя 2" style="rounded=1;whiteSpace=wrap;html=1;" vertex="1" parent="1">
          <mxGeometry x="730" y="180" width="120" height="60" as="geometry" />
        </mxCell>
        <mxCell id="1hzqkpMkMBvuS3bL-LA8-52" value="Вызов точки входа исполнителя 4" style="rounded=1;whiteSpace=wrap;html=1;" vertex="1" parent="1">
          <mxGeometry x="730" y="265" width="120" height="60" as="geometry" />
        </mxCell>
        <mxCell id="1hzqkpMkMBvuS3bL-LA8-54" value="Последовательный выход&lt;div&gt;из вложенности&lt;/div&gt;" style="points=[[0.145,0.145,0],[0.5,0,0],[0.855,0.145,0],[1,0.5,0],[0.855,0.855,0],[0.5,1,0],[0.145,0.855,0],[0,0.5,0]];shape=mxgraph.bpmn.event;html=1;verticalLabelPosition=bottom;labelBackgroundColor=#ffffff;verticalAlign=top;align=center;perimeter=ellipsePerimeter;outlineConnect=0;aspect=fixed;outline=end;symbol=terminate2;" vertex="1" parent="1">
          <mxGeometry x="765" y="340" width="50" height="50" as="geometry" />
        </mxCell>
        <mxCell id="1hzqkpMkMBvuS3bL-LA8-58" style="edgeStyle=orthogonalEdgeStyle;rounded=0;orthogonalLoop=1;jettySize=auto;html=1;exitX=0.5;exitY=1;exitDx=0;exitDy=0;entryX=0.5;entryY=0;entryDx=0;entryDy=0;entryPerimeter=0;" edge="1" parent="1" source="1hzqkpMkMBvuS3bL-LA8-52" target="1hzqkpMkMBvuS3bL-LA8-54">
          <mxGeometry relative="1" as="geometry" />
        </mxCell>
      </root>
    </mxGraphModel>
  </diagram>
</mxfile>
